<svg width="260" height="260" viewBox="0 0 260 260" fill="none" xmlns="http://www.w3.org/2000/svg">
<g clip-path="url(#clip0_105_2)">
<path d="M229.215 213.619L251.305 89.1274C254.774 69.5795 241.739 50.9209 222.191 47.4523L144.079 33.5919C124.531 30.1232 105.873 43.158 102.404 62.7059L80.314 187.197C76.8453 206.745 89.8801 225.403 109.428 228.872L187.54 242.733C207.088 246.201 225.747 233.166 229.215 213.619Z" fill="#44EBD3" stroke="#005D58" stroke-width="10"/>
<path d="M211.429 199.414V46.9474C211.429 27.0942 195.335 11 175.482 11L72.5977 11C52.7445 11 36.6503 27.0942 36.6503 46.9474V199.414C36.6503 219.267 52.7445 235.362 72.5977 235.362H175.482C195.335 235.362 211.429 219.267 211.429 199.414Z" fill="#F9CBE5" stroke="#A0004A" stroke-width="10"/>
</g>
<defs>
<clipPath id="clip0_105_2">
<rect width="260" height="260" fill="white"/>
</clipPath>
</defs>
</svg>
